<svg width="919" height="146" viewBox="0 0 919 146" fill="none" xmlns="http://www.w3.org/2000/svg">
<rect x="27.5" y="50.5" width="360" height="29" rx="4.5" fill="url(#paint0_linear_269_2)" stroke="black"/>
<path d="M28.503 113.542C30.303 113.542 30.807 111.328 30.807 108.7C30.807 106.072 30.303 103.858 28.503 103.858C26.703 103.858 26.199 106.072 26.199 108.7C26.199 111.328 26.703 113.542 28.503 113.542ZM28.503 102.148C32.121 102.148 32.859 105.838 32.859 108.7C32.859 111.562 32.121 115.252 28.503 115.252C24.885 115.252 24.147 111.562 24.147 108.7C24.147 105.838 24.885 102.148 28.503 102.148Z" fill="black"/>
<path d="M180.354 109.294L181.704 102.4H188.22V104.236H183.234L182.586 107.44L182.622 107.476C183.18 106.864 184.098 106.522 184.944 106.522C187.446 106.522 188.886 108.322 188.886 110.734C188.886 112.75 187.626 115.252 184.53 115.252C182.1 115.252 180.21 113.938 180.12 111.418H182.172C182.298 112.768 183.162 113.542 184.494 113.542C186.24 113.542 186.834 112.3 186.834 110.77C186.834 109.384 186.096 108.142 184.44 108.142C183.576 108.142 182.73 108.412 182.406 109.294H180.354ZM194.496 113.542C196.296 113.542 196.8 111.328 196.8 108.7C196.8 106.072 196.296 103.858 194.496 103.858C192.696 103.858 192.192 106.072 192.192 108.7C192.192 111.328 192.696 113.542 194.496 113.542ZM194.496 102.148C198.114 102.148 198.852 105.838 198.852 108.7C198.852 111.562 198.114 115.252 194.496 115.252C190.878 115.252 190.14 111.562 190.14 108.7C190.14 105.838 190.878 102.148 194.496 102.148ZM200.736 115V112.57H203.238V115H200.736ZM209.508 113.542C211.308 113.542 211.812 111.328 211.812 108.7C211.812 106.072 211.308 103.858 209.508 103.858C207.708 103.858 207.204 106.072 207.204 108.7C207.204 111.328 207.708 113.542 209.508 113.542ZM209.508 102.148C213.126 102.148 213.864 105.838 213.864 108.7C213.864 111.562 213.126 115.252 209.508 115.252C205.89 115.252 205.152 111.562 205.152 108.7C205.152 105.838 205.89 102.148 209.508 102.148ZM219.51 113.542C221.31 113.542 221.814 111.328 221.814 108.7C221.814 106.072 221.31 103.858 219.51 103.858C217.71 103.858 217.206 106.072 217.206 108.7C217.206 111.328 217.71 113.542 219.51 113.542ZM219.51 102.148C223.128 102.148 223.866 105.838 223.866 108.7C223.866 111.562 223.128 115.252 219.51 115.252C215.892 115.252 215.154 111.562 215.154 108.7C215.154 105.838 215.892 102.148 219.51 102.148ZM229.512 113.542C231.312 113.542 231.816 111.328 231.816 108.7C231.816 106.072 231.312 103.858 229.512 103.858C227.712 103.858 227.208 106.072 227.208 108.7C227.208 111.328 227.712 113.542 229.512 113.542ZM229.512 102.148C233.13 102.148 233.868 105.838 233.868 108.7C233.868 111.562 233.13 115.252 229.512 115.252C225.894 115.252 225.156 111.562 225.156 108.7C225.156 105.838 225.894 102.148 229.512 102.148Z" fill="black"/>
<path d="M27.5 74.5V89.5" stroke="black" stroke-linecap="round"/>
<path d="M387.5 74.5V89.5" stroke="black" stroke-linecap="round"/>
<path d="M207 80L207 89" stroke="black" stroke-linecap="round"/>
<path d="M348.933 106.108V104.488C350.661 104.506 352.299 103.912 352.605 102.4H354.279V115H352.029V106.108H348.933ZM362.984 113.542C364.784 113.542 365.288 111.328 365.288 108.7C365.288 106.072 364.784 103.858 362.984 103.858C361.184 103.858 360.68 106.072 360.68 108.7C360.68 111.328 361.184 113.542 362.984 113.542ZM362.984 102.148C366.602 102.148 367.34 105.838 367.34 108.7C367.34 111.562 366.602 115.252 362.984 115.252C359.366 115.252 358.628 111.562 358.628 108.7C358.628 105.838 359.366 102.148 362.984 102.148ZM372.986 113.542C374.786 113.542 375.29 111.328 375.29 108.7C375.29 106.072 374.786 103.858 372.986 103.858C371.186 103.858 370.682 106.072 370.682 108.7C370.682 111.328 371.186 113.542 372.986 113.542ZM372.986 102.148C376.604 102.148 377.342 105.838 377.342 108.7C377.342 111.562 376.604 115.252 372.986 115.252C369.368 115.252 368.63 111.562 368.63 108.7C368.63 105.838 369.368 102.148 372.986 102.148ZM379.226 115V112.57H381.728V115H379.226ZM387.998 113.542C389.798 113.542 390.302 111.328 390.302 108.7C390.302 106.072 389.798 103.858 387.998 103.858C386.198 103.858 385.694 106.072 385.694 108.7C385.694 111.328 386.198 113.542 387.998 113.542ZM387.998 102.148C391.616 102.148 392.354 105.838 392.354 108.7C392.354 111.562 391.616 115.252 387.998 115.252C384.38 115.252 383.642 111.562 383.642 108.7C383.642 105.838 384.38 102.148 387.998 102.148ZM398 113.542C399.8 113.542 400.304 111.328 400.304 108.7C400.304 106.072 399.8 103.858 398 103.858C396.2 103.858 395.696 106.072 395.696 108.7C395.696 111.328 396.2 113.542 398 113.542ZM398 102.148C401.618 102.148 402.356 105.838 402.356 108.7C402.356 111.562 401.618 115.252 398 115.252C394.382 115.252 393.644 111.562 393.644 108.7C393.644 105.838 394.382 102.148 398 102.148ZM408.002 113.542C409.802 113.542 410.306 111.328 410.306 108.7C410.306 106.072 409.802 103.858 408.002 103.858C406.202 103.858 405.698 106.072 405.698 108.7C405.698 111.328 406.202 113.542 408.002 113.542ZM408.002 102.148C411.62 102.148 412.358 105.838 412.358 108.7C412.358 111.562 411.62 115.252 408.002 115.252C404.384 115.252 403.646 111.562 403.646 108.7C403.646 105.838 404.384 102.148 408.002 102.148Z" fill="black"/>
<rect x="510.5" y="50.5" width="360" height="29" rx="4.5" fill="url(#paint1_linear_269_2)" stroke="black"/>
<path d="M511.503 113.542C513.303 113.542 513.807 111.328 513.807 108.7C513.807 106.072 513.303 103.858 511.503 103.858C509.703 103.858 509.199 106.072 509.199 108.7C509.199 111.328 509.703 113.542 511.503 113.542ZM511.503 102.148C515.121 102.148 515.859 105.838 515.859 108.7C515.859 111.562 515.121 115.252 511.503 115.252C507.885 115.252 507.147 111.562 507.147 108.7C507.147 105.838 507.885 102.148 511.503 102.148Z" fill="black"/>
<path d="M663.354 109.294L664.704 102.4H671.22V104.236H666.234L665.586 107.44L665.622 107.476C666.18 106.864 667.098 106.522 667.944 106.522C670.446 106.522 671.886 108.322 671.886 110.734C671.886 112.75 670.626 115.252 667.53 115.252C665.1 115.252 663.21 113.938 663.12 111.418H665.172C665.298 112.768 666.162 113.542 667.494 113.542C669.24 113.542 669.834 112.3 669.834 110.77C669.834 109.384 669.096 108.142 667.44 108.142C666.576 108.142 665.73 108.412 665.406 109.294H663.354ZM677.496 113.542C679.296 113.542 679.8 111.328 679.8 108.7C679.8 106.072 679.296 103.858 677.496 103.858C675.696 103.858 675.192 106.072 675.192 108.7C675.192 111.328 675.696 113.542 677.496 113.542ZM677.496 102.148C681.114 102.148 681.852 105.838 681.852 108.7C681.852 111.562 681.114 115.252 677.496 115.252C673.878 115.252 673.14 111.562 673.14 108.7C673.14 105.838 673.878 102.148 677.496 102.148ZM683.736 115V112.57H686.238V115H683.736ZM692.508 113.542C694.308 113.542 694.812 111.328 694.812 108.7C694.812 106.072 694.308 103.858 692.508 103.858C690.708 103.858 690.204 106.072 690.204 108.7C690.204 111.328 690.708 113.542 692.508 113.542ZM692.508 102.148C696.126 102.148 696.864 105.838 696.864 108.7C696.864 111.562 696.126 115.252 692.508 115.252C688.89 115.252 688.152 111.562 688.152 108.7C688.152 105.838 688.89 102.148 692.508 102.148ZM702.51 113.542C704.31 113.542 704.814 111.328 704.814 108.7C704.814 106.072 704.31 103.858 702.51 103.858C700.71 103.858 700.206 106.072 700.206 108.7C700.206 111.328 700.71 113.542 702.51 113.542ZM702.51 102.148C706.128 102.148 706.866 105.838 706.866 108.7C706.866 111.562 706.128 115.252 702.51 115.252C698.892 115.252 698.154 111.562 698.154 108.7C698.154 105.838 698.892 102.148 702.51 102.148ZM712.512 113.542C714.312 113.542 714.816 111.328 714.816 108.7C714.816 106.072 714.312 103.858 712.512 103.858C710.712 103.858 710.208 106.072 710.208 108.7C710.208 111.328 710.712 113.542 712.512 113.542ZM712.512 102.148C716.13 102.148 716.868 105.838 716.868 108.7C716.868 111.562 716.13 115.252 712.512 115.252C708.894 115.252 708.156 111.562 708.156 108.7C708.156 105.838 708.894 102.148 712.512 102.148Z" fill="black"/>
<path d="M510.5 74.5V89.5" stroke="black" stroke-linecap="round"/>
<path d="M870.5 74.5V89.5" stroke="black" stroke-linecap="round"/>
<path d="M690 80L690 89" stroke="black" stroke-linecap="round"/>
<path d="M831.933 106.108V104.488C833.661 104.506 835.299 103.912 835.605 102.4H837.279V115H835.029V106.108H831.933ZM845.984 113.542C847.784 113.542 848.288 111.328 848.288 108.7C848.288 106.072 847.784 103.858 845.984 103.858C844.184 103.858 843.68 106.072 843.68 108.7C843.68 111.328 844.184 113.542 845.984 113.542ZM845.984 102.148C849.602 102.148 850.34 105.838 850.34 108.7C850.34 111.562 849.602 115.252 845.984 115.252C842.366 115.252 841.628 111.562 841.628 108.7C841.628 105.838 842.366 102.148 845.984 102.148ZM855.986 113.542C857.786 113.542 858.29 111.328 858.29 108.7C858.29 106.072 857.786 103.858 855.986 103.858C854.186 103.858 853.682 106.072 853.682 108.7C853.682 111.328 854.186 113.542 855.986 113.542ZM855.986 102.148C859.604 102.148 860.342 105.838 860.342 108.7C860.342 111.562 859.604 115.252 855.986 115.252C852.368 115.252 851.63 111.562 851.63 108.7C851.63 105.838 852.368 102.148 855.986 102.148ZM862.226 115V112.57H864.728V115H862.226ZM870.998 113.542C872.798 113.542 873.302 111.328 873.302 108.7C873.302 106.072 872.798 103.858 870.998 103.858C869.198 103.858 868.694 106.072 868.694 108.7C868.694 111.328 869.198 113.542 870.998 113.542ZM870.998 102.148C874.616 102.148 875.354 105.838 875.354 108.7C875.354 111.562 874.616 115.252 870.998 115.252C867.38 115.252 866.642 111.562 866.642 108.7C866.642 105.838 867.38 102.148 870.998 102.148ZM881 113.542C882.8 113.542 883.304 111.328 883.304 108.7C883.304 106.072 882.8 103.858 881 103.858C879.2 103.858 878.696 106.072 878.696 108.7C878.696 111.328 879.2 113.542 881 113.542ZM881 102.148C884.618 102.148 885.356 105.838 885.356 108.7C885.356 111.562 884.618 115.252 881 115.252C877.382 115.252 876.644 111.562 876.644 108.7C876.644 105.838 877.382 102.148 881 102.148ZM891.002 113.542C892.802 113.542 893.306 111.328 893.306 108.7C893.306 106.072 892.802 103.858 891.002 103.858C889.202 103.858 888.698 106.072 888.698 108.7C888.698 111.328 889.202 113.542 891.002 113.542ZM891.002 102.148C894.62 102.148 895.358 105.838 895.358 108.7C895.358 111.562 894.62 115.252 891.002 115.252C887.384 115.252 886.646 111.562 886.646 108.7C886.646 105.838 887.384 102.148 891.002 102.148Z" fill="black"/>
<rect x="0.5" y="11.5" width="918" height="134" rx="4.5" stroke="black"/>
<rect x="333" width="254" height="23" rx="11.5" fill="white"/>
<path d="M363.525 5.148H373.137V7.524H366.351V10.278H372.579V12.474H366.351V15.624H373.281V18H363.525V5.148ZM377.123 13.734C377.123 14.166 377.201 14.532 377.357 14.832C377.513 15.132 377.717 15.378 377.969 15.57C378.233 15.75 378.539 15.888 378.887 15.984C379.235 16.068 379.595 16.11 379.967 16.11C380.219 16.11 380.489 16.092 380.777 16.056C381.065 16.008 381.335 15.924 381.587 15.804C381.839 15.684 382.049 15.522 382.217 15.318C382.385 15.102 382.469 14.832 382.469 14.508C382.469 14.16 382.355 13.878 382.127 13.662C381.911 13.446 381.623 13.266 381.263 13.122C380.903 12.978 380.495 12.852 380.039 12.744C379.583 12.636 379.121 12.516 378.653 12.384C378.173 12.264 377.705 12.12 377.249 11.952C376.793 11.772 376.385 11.544 376.025 11.268C375.665 10.992 375.371 10.65 375.143 10.242C374.927 9.822 374.819 9.318 374.819 8.73C374.819 8.07 374.957 7.5 375.233 7.02C375.521 6.528 375.893 6.12 376.349 5.796C376.805 5.472 377.321 5.232 377.897 5.076C378.473 4.92 379.049 4.842 379.625 4.842C380.297 4.842 380.939 4.92 381.551 5.076C382.175 5.22 382.727 5.46 383.207 5.796C383.687 6.132 384.065 6.564 384.341 7.092C384.629 7.608 384.773 8.238 384.773 8.982H382.037C382.013 8.598 381.929 8.28 381.785 8.028C381.653 7.776 381.473 7.578 381.245 7.434C381.017 7.29 380.753 7.188 380.453 7.128C380.165 7.068 379.847 7.038 379.499 7.038C379.271 7.038 379.043 7.062 378.815 7.11C378.587 7.158 378.377 7.242 378.185 7.362C378.005 7.482 377.855 7.632 377.735 7.812C377.615 7.992 377.555 8.22 377.555 8.496C377.555 8.748 377.603 8.952 377.699 9.108C377.795 9.264 377.981 9.408 378.257 9.54C378.545 9.672 378.935 9.804 379.427 9.936C379.931 10.068 380.585 10.236 381.389 10.44C381.629 10.488 381.959 10.578 382.379 10.71C382.811 10.83 383.237 11.028 383.657 11.304C384.077 11.58 384.437 11.952 384.737 12.42C385.049 12.876 385.205 13.464 385.205 14.184C385.205 14.772 385.091 15.318 384.863 15.822C384.635 16.326 384.293 16.764 383.837 17.136C383.393 17.496 382.835 17.778 382.163 17.982C381.503 18.186 380.735 18.288 379.859 18.288C379.151 18.288 378.461 18.198 377.789 18.018C377.129 17.85 376.541 17.58 376.025 17.208C375.521 16.836 375.119 16.362 374.819 15.786C374.519 15.21 374.375 14.526 374.387 13.734H377.123ZM395.455 9.468C395.407 9.144 395.299 8.85 395.131 8.586C394.963 8.31 394.753 8.07 394.501 7.866C394.249 7.662 393.961 7.506 393.637 7.398C393.325 7.278 392.995 7.218 392.647 7.218C392.011 7.218 391.471 7.344 391.027 7.596C390.583 7.836 390.223 8.166 389.947 8.586C389.671 8.994 389.467 9.462 389.335 9.99C389.215 10.518 389.155 11.064 389.155 11.628C389.155 12.168 389.215 12.696 389.335 13.212C389.467 13.716 389.671 14.172 389.947 14.58C390.223 14.988 390.583 15.318 391.027 15.57C391.471 15.81 392.011 15.93 392.647 15.93C393.511 15.93 394.183 15.666 394.663 15.138C395.155 14.61 395.455 13.914 395.563 13.05H398.299C398.227 13.854 398.041 14.58 397.741 15.228C397.441 15.876 397.045 16.428 396.553 16.884C396.061 17.34 395.485 17.688 394.825 17.928C394.165 18.168 393.439 18.288 392.647 18.288C391.663 18.288 390.775 18.12 389.983 17.784C389.203 17.436 388.543 16.962 388.003 16.362C387.463 15.762 387.049 15.06 386.761 14.256C386.473 13.44 386.329 12.564 386.329 11.628C386.329 10.668 386.473 9.78 386.761 8.964C387.049 8.136 387.463 7.416 388.003 6.804C388.543 6.192 389.203 5.712 389.983 5.364C390.775 5.016 391.663 4.842 392.647 4.842C393.355 4.842 394.021 4.944 394.645 5.148C395.281 5.352 395.845 5.652 396.337 6.048C396.841 6.432 397.255 6.912 397.579 7.488C397.903 8.064 398.107 8.724 398.191 9.468H395.455ZM403.468 13.032H406.798L405.178 8.316H405.142L403.468 13.032ZM403.738 5.148H406.636L411.442 18H408.508L407.536 15.138H402.73L401.722 18H398.878L403.738 5.148ZM412.551 5.148H415.377V15.624H421.641V18H412.551V5.148ZM426.461 13.032H429.791L428.171 8.316H428.135L426.461 13.032ZM426.731 5.148H429.629L434.435 18H431.501L430.529 15.138H425.723L424.715 18H421.871L426.731 5.148ZM443.379 15.624H445.899C446.307 15.624 446.703 15.558 447.087 15.426C447.471 15.294 447.813 15.078 448.113 14.778C448.413 14.466 448.653 14.064 448.833 13.572C449.013 13.08 449.103 12.48 449.103 11.772C449.103 11.124 449.037 10.542 448.905 10.026C448.785 9.498 448.581 9.048 448.293 8.676C448.005 8.304 447.621 8.022 447.141 7.83C446.673 7.626 446.091 7.524 445.395 7.524H443.379V15.624ZM440.553 5.148H446.097C446.925 5.148 447.693 5.28 448.401 5.544C449.121 5.808 449.739 6.204 450.255 6.732C450.783 7.26 451.191 7.92 451.479 8.712C451.779 9.504 451.929 10.434 451.929 11.502C451.929 12.438 451.809 13.302 451.569 14.094C451.329 14.886 450.963 15.57 450.471 16.146C449.991 16.722 449.385 17.178 448.653 17.514C447.933 17.838 447.081 18 446.097 18H440.553V5.148ZM453.894 5.148H463.506V7.524H456.72V10.278H462.948V12.474H456.72V15.624H463.65V18H453.894V5.148ZM479.144 9.468C479.096 9.144 478.988 8.85 478.82 8.586C478.652 8.31 478.442 8.07 478.19 7.866C477.938 7.662 477.65 7.506 477.326 7.398C477.014 7.278 476.684 7.218 476.336 7.218C475.7 7.218 475.16 7.344 474.716 7.596C474.272 7.836 473.912 8.166 473.636 8.586C473.36 8.994 473.156 9.462 473.024 9.99C472.904 10.518 472.844 11.064 472.844 11.628C472.844 12.168 472.904 12.696 473.024 13.212C473.156 13.716 473.36 14.172 473.636 14.58C473.912 14.988 474.272 15.318 474.716 15.57C475.16 15.81 475.7 15.93 476.336 15.93C477.2 15.93 477.872 15.666 478.352 15.138C478.844 14.61 479.144 13.914 479.252 13.05H481.988C481.916 13.854 481.73 14.58 481.43 15.228C481.13 15.876 480.734 16.428 480.242 16.884C479.75 17.34 479.174 17.688 478.514 17.928C477.854 18.168 477.128 18.288 476.336 18.288C475.352 18.288 474.464 18.12 473.672 17.784C472.892 17.436 472.232 16.962 471.692 16.362C471.152 15.762 470.738 15.06 470.45 14.256C470.162 13.44 470.018 12.564 470.018 11.628C470.018 10.668 470.162 9.78 470.45 8.964C470.738 8.136 471.152 7.416 471.692 6.804C472.232 6.192 472.892 5.712 473.672 5.364C474.464 5.016 475.352 4.842 476.336 4.842C477.044 4.842 477.71 4.944 478.334 5.148C478.97 5.352 479.534 5.652 480.026 6.048C480.53 6.432 480.944 6.912 481.268 7.488C481.592 8.064 481.796 8.724 481.88 9.468H479.144ZM486.186 11.628C486.186 12.168 486.246 12.696 486.366 13.212C486.498 13.716 486.702 14.172 486.978 14.58C487.254 14.988 487.614 15.318 488.058 15.57C488.502 15.81 489.042 15.93 489.678 15.93C490.314 15.93 490.854 15.81 491.298 15.57C491.742 15.318 492.102 14.988 492.378 14.58C492.654 14.172 492.852 13.716 492.972 13.212C493.104 12.696 493.17 12.168 493.17 11.628C493.17 11.064 493.104 10.518 492.972 9.99C492.852 9.462 492.654 8.994 492.378 8.586C492.102 8.166 491.742 7.836 491.298 7.596C490.854 7.344 490.314 7.218 489.678 7.218C489.042 7.218 488.502 7.344 488.058 7.596C487.614 7.836 487.254 8.166 486.978 8.586C486.702 8.994 486.498 9.462 486.366 9.99C486.246 10.518 486.186 11.064 486.186 11.628ZM483.36 11.628C483.36 10.668 483.504 9.78 483.792 8.964C484.08 8.136 484.494 7.416 485.034 6.804C485.574 6.192 486.234 5.712 487.014 5.364C487.806 5.016 488.694 4.842 489.678 4.842C490.674 4.842 491.562 5.016 492.342 5.364C493.122 5.712 493.782 6.192 494.322 6.804C494.862 7.416 495.276 8.136 495.564 8.964C495.852 9.78 495.996 10.668 495.996 11.628C495.996 12.564 495.852 13.44 495.564 14.256C495.276 15.06 494.862 15.762 494.322 16.362C493.782 16.962 493.122 17.436 492.342 17.784C491.562 18.12 490.674 18.288 489.678 18.288C488.694 18.288 487.806 18.12 487.014 17.784C486.234 17.436 485.574 16.962 485.034 16.362C484.494 15.762 484.08 15.06 483.792 14.256C483.504 13.44 483.36 12.564 483.36 11.628ZM497.928 5.148H500.754V15.624H507.018V18H497.928V5.148ZM510.865 11.628C510.865 12.168 510.925 12.696 511.045 13.212C511.177 13.716 511.381 14.172 511.657 14.58C511.933 14.988 512.293 15.318 512.737 15.57C513.181 15.81 513.721 15.93 514.357 15.93C514.993 15.93 515.533 15.81 515.977 15.57C516.421 15.318 516.781 14.988 517.057 14.58C517.333 14.172 517.531 13.716 517.651 13.212C517.783 12.696 517.849 12.168 517.849 11.628C517.849 11.064 517.783 10.518 517.651 9.99C517.531 9.462 517.333 8.994 517.057 8.586C516.781 8.166 516.421 7.836 515.977 7.596C515.533 7.344 514.993 7.218 514.357 7.218C513.721 7.218 513.181 7.344 512.737 7.596C512.293 7.836 511.933 8.166 511.657 8.586C511.381 8.994 511.177 9.462 511.045 9.99C510.925 10.518 510.865 11.064 510.865 11.628ZM508.039 11.628C508.039 10.668 508.183 9.78 508.471 8.964C508.759 8.136 509.173 7.416 509.713 6.804C510.253 6.192 510.913 5.712 511.693 5.364C512.485 5.016 513.373 4.842 514.357 4.842C515.353 4.842 516.241 5.016 517.021 5.364C517.801 5.712 518.461 6.192 519.001 6.804C519.541 7.416 519.955 8.136 520.243 8.964C520.531 9.78 520.675 10.668 520.675 11.628C520.675 12.564 520.531 13.44 520.243 14.256C519.955 15.06 519.541 15.762 519.001 16.362C518.461 16.962 517.801 17.436 517.021 17.784C516.241 18.12 515.353 18.288 514.357 18.288C513.373 18.288 512.485 18.12 511.693 17.784C510.913 17.436 510.253 16.962 509.713 16.362C509.173 15.762 508.759 15.06 508.471 14.256C508.183 13.44 508.039 12.564 508.039 11.628ZM525.433 10.962H528.529C529.177 10.962 529.663 10.818 529.987 10.53C530.311 10.242 530.473 9.774 530.473 9.126C530.473 8.502 530.311 8.052 529.987 7.776C529.663 7.488 529.177 7.344 528.529 7.344H525.433V10.962ZM522.607 5.148H529.537C530.113 5.148 530.629 5.244 531.085 5.436C531.553 5.616 531.949 5.868 532.273 6.192C532.609 6.516 532.861 6.894 533.029 7.326C533.209 7.746 533.299 8.202 533.299 8.694C533.299 9.45 533.137 10.104 532.813 10.656C532.501 11.208 531.985 11.628 531.265 11.916V11.952C531.613 12.048 531.901 12.198 532.129 12.402C532.357 12.594 532.543 12.828 532.687 13.104C532.831 13.368 532.933 13.662 532.993 13.986C533.065 14.31 533.113 14.634 533.137 14.958C533.149 15.162 533.161 15.402 533.173 15.678C533.185 15.954 533.203 16.236 533.227 16.524C533.263 16.812 533.311 17.088 533.371 17.352C533.443 17.604 533.545 17.82 533.677 18H530.851C530.695 17.592 530.599 17.106 530.563 16.542C530.527 15.978 530.473 15.438 530.401 14.922C530.305 14.25 530.101 13.758 529.789 13.446C529.477 13.134 528.967 12.978 528.259 12.978H525.433V18H522.607V5.148ZM535.597 5.148H545.209V7.524H538.423V10.278H544.651V12.474H538.423V15.624H545.353V18H535.597V5.148ZM549.195 13.734C549.195 14.166 549.273 14.532 549.429 14.832C549.585 15.132 549.789 15.378 550.041 15.57C550.305 15.75 550.611 15.888 550.959 15.984C551.307 16.068 551.667 16.11 552.039 16.11C552.291 16.11 552.561 16.092 552.849 16.056C553.137 16.008 553.407 15.924 553.659 15.804C553.911 15.684 554.121 15.522 554.289 15.318C554.457 15.102 554.541 14.832 554.541 14.508C554.541 14.16 554.427 13.878 554.199 13.662C553.983 13.446 553.695 13.266 553.335 13.122C552.975 12.978 552.567 12.852 552.111 12.744C551.655 12.636 551.193 12.516 550.725 12.384C550.245 12.264 549.777 12.12 549.321 11.952C548.865 11.772 548.457 11.544 548.097 11.268C547.737 10.992 547.443 10.65 547.215 10.242C546.999 9.822 546.891 9.318 546.891 8.73C546.891 8.07 547.029 7.5 547.305 7.02C547.593 6.528 547.965 6.12 548.421 5.796C548.877 5.472 549.393 5.232 549.969 5.076C550.545 4.92 551.121 4.842 551.697 4.842C552.369 4.842 553.011 4.92 553.623 5.076C554.247 5.22 554.799 5.46 555.279 5.796C555.759 6.132 556.137 6.564 556.413 7.092C556.701 7.608 556.845 8.238 556.845 8.982H554.109C554.085 8.598 554.001 8.28 553.857 8.028C553.725 7.776 553.545 7.578 553.317 7.434C553.089 7.29 552.825 7.188 552.525 7.128C552.237 7.068 551.919 7.038 551.571 7.038C551.343 7.038 551.115 7.062 550.887 7.11C550.659 7.158 550.449 7.242 550.257 7.362C550.077 7.482 549.927 7.632 549.807 7.812C549.687 7.992 549.627 8.22 549.627 8.496C549.627 8.748 549.675 8.952 549.771 9.108C549.867 9.264 550.053 9.408 550.329 9.54C550.617 9.672 551.007 9.804 551.499 9.936C552.003 10.068 552.657 10.236 553.461 10.44C553.701 10.488 554.031 10.578 554.451 10.71C554.883 10.83 555.309 11.028 555.729 11.304C556.149 11.58 556.509 11.952 556.809 12.42C557.121 12.876 557.277 13.464 557.277 14.184C557.277 14.772 557.163 15.318 556.935 15.822C556.707 16.326 556.365 16.764 555.909 17.136C555.465 17.496 554.907 17.778 554.235 17.982C553.575 18.186 552.807 18.288 551.931 18.288C551.223 18.288 550.533 18.198 549.861 18.018C549.201 17.85 548.613 17.58 548.097 17.208C547.593 16.836 547.191 16.362 546.891 15.786C546.591 15.21 546.447 14.526 546.459 13.734H549.195Z" fill="black"/>
<defs>
<linearGradient id="paint0_linear_269_2" x1="27" y1="65" x2="388" y2="65" gradientUnits="userSpaceOnUse">
<stop stop-color="white"/>
<stop offset="1" stop-color="#F99F1D"/>
</linearGradient>
<linearGradient id="paint1_linear_269_2" x1="510" y1="65" x2="871" y2="65" gradientUnits="userSpaceOnUse">
<stop stop-color="white"/>
<stop offset="1" stop-color="#53C8F4"/>
</linearGradient>
</defs>
</svg>
