

<svg width="103" height="101" viewBox="0 0 103 101" fill="none" xmlns="http://www.w3.org/2000/svg">
<path d="M36.52 70.47C36.52 70.47 40.93 79.26 53.28 75.05" stroke="#231F20" stroke-linecap="round" stroke-linejoin="round"/>
<path d="M91.73 25.31C91.73 25.31 95.18 24.61 97.75 27.49C99 28.89 99.57 30.77 99.49 32.64L98.91 47.14C98.91 47.14 99.07 51.29 94.79 52.8" stroke="#231F20" stroke-linecap="round" stroke-linejoin="round"/>
<path d="M99.25 30.33H101.05C101.69 30.33 102.2 30.85 102.2 31.48V45.96C102.2 46.6 101.68 47.11 101.05 47.11H98.92" stroke="#231F20" stroke-linecap="round" stroke-linejoin="round"/>
<path d="M56.2 46.61C53.33 44.77 49.56 44.77 46.7 46.61C46.51 46.73 46.32 46.87 46.13 47.01C44.29 48.4 43.83 49.86 41.86 52.49C41.38 53.13 38.71 57.58 33.44 57.18C31.57 57.04 20.4 56.6 14.86 54.55C14.84 54.55 11.5 53.37 11.23 49.75C11 46.7 10.88 43.42 10.92 39.93C10.95 37.23 11.08 34.67 11.28 32.25C11.62 28.14 17.76 23.15 33.32 20.62C37.36 19.96 62.95 19.54 69.56 20.62C85.13 23.16 91.27 28.14 91.6 32.25C91.8 34.67 91.93 37.23 91.96 39.93C92 43.42 91.88 46.7 91.65 49.75C91.38 53.37 88.03 54.54 88.02 54.55C82.48 56.6 71.31 57.03 69.44 57.18C64.17 57.58 61.5 53.13 61.02 52.49C59.05 49.86 58.59 48.4 56.75 47.01C56.56 46.87 56.37 46.74 56.18 46.61H56.2Z" stroke="#231F20" stroke-linecap="round" stroke-linejoin="round"/>
<path d="M51.45 48.64C42.31 48.64 45.34 61.87 31.84 60.85C30.26 60.73 28.51 60.59 26.62 60.44C18.7 59.8 15.53 58.44 11.61 56.99C9.44 56.18 7.94 54.19 7.75 51.88C7.44 48.25 7.27 44.3 7.33 40.06C7.37 36.91 7.53 33.93 7.77 31.14C7.94 29.17 9.38 26.59 10.99 25.44C11.46 25.1 11.98 24.75 12.52 24.39C13.88 23.51 19.45 19.03 31.72 17.03C36.18 16.3 62.36 15.59 71.18 17.03C83.46 19.03 89.03 23.51 90.38 24.39C90.93 24.74 91.44 25.09 91.91 25.44C93.51 26.59 94.96 29.17 95.13 31.14C95.37 33.94 95.53 36.92 95.57 40.06C95.62 44.29 95.45 48.25 95.15 51.88C94.95 54.19 93.46 56.18 91.29 56.99C87.38 58.44 84.2 59.8 76.28 60.44C74.39 60.59 72.64 60.73 71.06 60.85C57.56 61.87 60.59 48.64 51.45 48.64Z" stroke="#231F20" stroke-linecap="round" stroke-linejoin="round"/>
<path d="M11.17 25.31C11.17 25.31 7.71999 24.61 5.14999 27.49C3.89999 28.89 3.33 30.77 3.41 32.64L3.99 47.14C3.99 47.14 3.82999 51.29 8.10999 52.8" stroke="#231F20" stroke-linecap="round" stroke-linejoin="round"/>
<path d="M3.64999 30.33H1.85001C1.21001 30.33 0.699997 30.85 0.699997 31.48V45.96C0.699997 46.6 1.22001 47.11 1.85001 47.11H3.98" stroke="#231F20" stroke-linecap="round" stroke-linejoin="round"/>
</svg>
