<svg width="117" height="108" viewBox="0 0 117 108" fill="none" xmlns="http://www.w3.org/2000/svg">
<path class="relleno" d="M58.4 107.16C86 107.16 108.38 84.78 108.38 57.18C108.38 29.58 86 7.20001 58.4 7.20001C30.8 7.20001 8.41998 29.58 8.41998 57.18C8.41998 84.78 30.8 107.16 58.4 107.16Z" fill="#53C8F4"/>
<path d="M38.49 60.24C37.32 57.7 38.04 54.81 40.18 53.78C42.32 52.75 45.04 53.97 46.25 56.47C46.36 56.71 46.49 56.97 46.52 57.2" stroke="#231F20" stroke-linecap="round" stroke-linejoin="round"/>
<path d="M63.35 59.81C64.52 57.27 63.8 54.38 61.66 53.35C59.52 52.32 56.8 53.54 55.59 56.04C55.48 56.28 55.35 56.54 55.32 56.77" stroke="#231F20" stroke-linecap="round" stroke-linejoin="round"/>
<path d="M44.41 67.15H58.68L56.31 69.52C53.91 71.92 50.07 72.06 47.51 69.83L44.42 67.15H44.41Z" stroke="#231F20" stroke-linecap="round" stroke-linejoin="round"/>
<path d="M8.53 68.76C12.5893 68.76 15.88 61.6995 15.88 52.99C15.88 44.2804 12.5893 37.22 8.53 37.22C4.47071 37.22 1.17999 44.2804 1.17999 52.99C1.17999 61.6995 4.47071 68.76 8.53 68.76Z" stroke="#231F20" stroke-linecap="round" stroke-linejoin="round"/>
<path d="M108.29 68.76C112.349 68.76 115.64 61.6995 115.64 52.99C115.64 44.2804 112.349 37.22 108.29 37.22C104.231 37.22 100.94 44.2804 100.94 52.99C100.94 61.6995 104.231 68.76 108.29 68.76Z" stroke="#231F20" stroke-linecap="round" stroke-linejoin="round"/>
<path d="M108.94 37.01C101.88 15.86 81.92 0.619995 58.4 0.619995C34.88 0.619995 14.92 15.86 7.85999 37.01" stroke="#231F20" stroke-linecap="round" stroke-linejoin="round"/>
</svg>
