<svg width="104" height="117" viewBox="0 0 104 117" fill="none" xmlns="http://www.w3.org/2000/svg">
<path d="M2.57001 54.38C5.62001 29.7 26.66 10.59 52.17 10.59C77.68 10.59 98.78 29.75 101.78 54.49" stroke="#231F20" stroke-linecap="round" stroke-linejoin="round"/>
<path d="M52.18 22.34C58.0508 22.34 62.81 17.5808 62.81 11.71C62.81 5.83924 58.0508 1.08002 52.18 1.08002C46.3092 1.08002 41.55 5.83924 41.55 11.71C41.55 17.5808 46.3092 22.34 52.18 22.34Z" stroke="#231F20" stroke-linecap="round" stroke-linejoin="round"/>
<path d="M101.79 54.49C98.79 29.76 77.72 10.59 52.18 10.59C26.64 10.59 5.63 29.7 2.58 54.38" stroke="#231F20" stroke-linecap="round" stroke-linejoin="round"/>
<path d="M54.24 46.2C31.9 45.9 14.17 50.44 2.57001 54.39C2.23001 55.19 1.79 56.49 1.75 58.15C1.71 59.55 1.97 60.7 2.2 61.46C8.08 59.47 15.51 57.34 24.23 55.74C33.02 54.13 43.15 53.05 54.32 53.2C74.6 53.47 91.07 57.69 102.14 61.46C102.33 60.56 102.57 59.78 102.57 57.9C102.57 55.77 101.78 54.5 101.78 54.5C93.99 51.85 83.67 48.96 71.17 47.38C65.12 46.62 59.44 46.28 54.24 46.21" stroke="#231F20" stroke-linecap="round" stroke-linejoin="round"/>
<path d="M2.2 61.46C2.47 65.42 2.91001 69.64 3.60001 74.08C4.62001 80.69 6.02001 86.72 7.57001 92.13C7.87001 93.17 9.33001 93.21 9.71001 92.2C11.33 87.8 12.95 84.33 14.19 81.87C17.56 75.22 20 72.32 22.07 66.12C23.5 61.82 24.02 58.12 24.24 55.74" stroke="#231F20" stroke-linecap="round" stroke-linejoin="round"/>
<path d="M8.57001 93.08V100.77" stroke="#231F20" stroke-linecap="round" stroke-linejoin="round"/>
<path d="M8.57001 116.21C12.8336 116.21 16.29 112.754 16.29 108.49C16.29 104.226 12.8336 100.77 8.57001 100.77C4.30637 100.77 0.850006 104.226 0.850006 108.49C0.850006 112.754 4.30637 116.21 8.57001 116.21Z" stroke="#231F20" stroke-linecap="round" stroke-linejoin="round"/>
<path d="M102.08 61.54C101.81 65.5 101.37 69.72 100.68 74.16C99.66 80.77 98.26 86.8 96.71 92.21C96.41 93.25 94.95 93.29 94.57 92.28C92.95 87.88 91.33 84.41 90.09 81.95C86.72 75.3 84.28 72.4 82.22 66.2C80.79 61.9 80.27 58.2 80.05 55.82" stroke="#231F20" stroke-linecap="round" stroke-linejoin="round"/>
<path d="M95.71 93.17V100.85" stroke="#231F20" stroke-linecap="round" stroke-linejoin="round"/>
<path d="M95.71 116.29C99.9736 116.29 103.43 112.834 103.43 108.57C103.43 104.306 99.9736 100.85 95.71 100.85C91.4464 100.85 87.99 104.306 87.99 108.57C87.99 112.834 91.4464 116.29 95.71 116.29Z" stroke="#231F20" stroke-linecap="round" stroke-linejoin="round"/>
<path d="M39.75 76.02C38.58 73.48 39.3 70.59 41.44 69.56C43.58 68.53 46.3 69.75 47.51 72.25C47.62 72.49 47.75 72.75 47.78 72.98" stroke="#231F20" stroke-linecap="round" stroke-linejoin="round"/>
<path d="M64.6 75.6C65.77 73.06 65.05 70.17 62.91 69.14C60.77 68.11 58.05 69.33 56.84 71.83C56.73 72.07 56.6 72.33 56.57 72.56" stroke="#231F20" stroke-linecap="round" stroke-linejoin="round"/>
<path d="M45.66 82.94H59.93L57.56 85.31C55.16 87.71 51.32 87.85 48.76 85.62L45.67 82.94H45.66Z" stroke="#231F20" stroke-linecap="round" stroke-linejoin="round"/>
</svg>
