<svg width="102" height="116" viewBox="0 0 102 116" fill="none" xmlns="http://www.w3.org/2000/svg">
<path d="M52.51 15.95C56.7736 15.95 60.23 12.4936 60.23 8.23001C60.23 3.96637 56.7736 0.51001 52.51 0.51001C48.2463 0.51001 44.79 3.96637 44.79 8.23001C44.79 12.4936 48.2463 15.95 52.51 15.95Z" stroke="#231F20" stroke-linecap="round" stroke-linejoin="round"/>
<path d="M51.29 115.91C78.89 115.91 101.27 93.53 101.27 65.93C101.27 38.33 78.89 15.95 51.29 15.95C23.69 15.95 1.31 38.33 1.31 65.93C1.31 93.53 23.69 115.91 51.29 115.91Z" fill="#53C8F4"/>
<path d="M101.1 61.81C99.01 36.13 77.51 15.94 51.29 15.94C25.07 15.94 3.57998 36.12 1.47998 61.8" stroke="#231F20" stroke-linecap="round" stroke-linejoin="round"/>
<path d="M30.89 76.23C30.89 77.64 30.53 78.89 29.99 79.78C29.44 80.67 28.74 81.12 28.05 81.12C27.36 81.12 26.67 80.67 26.11 79.78C25.56 78.9 25.21 77.64 25.21 76.23C25.21 74.82 25.57 73.56 26.11 72.68C26.66 71.79 27.36 71.34 28.05 71.34C28.74 71.34 29.43 71.79 29.99 72.68C30.54 73.57 30.89 74.82 30.89 76.23Z" fill="#231F20" stroke="#53C8F4" stroke-linecap="round" stroke-linejoin="round"/>
<path d="M50.34 76.23C50.34 77.64 49.98 78.89 49.44 79.78C48.89 80.67 48.19 81.12 47.5 81.12C46.81 81.12 46.12 80.67 45.56 79.78C45.01 78.9 44.66 77.64 44.66 76.23C44.66 74.82 45.02 73.56 45.56 72.68C46.11 71.79 46.81 71.34 47.5 71.34C48.19 71.34 48.88 71.79 49.44 72.68C49.99 73.57 50.34 74.82 50.34 76.23Z" fill="#231F20" stroke="#53C8F4" stroke-linecap="round" stroke-linejoin="round"/>
<path d="M30.7 87.77H44.97L42.6 90.14C40.2 92.54 36.36 92.68 33.8 90.45L30.71 87.77H30.7Z" stroke="#231F20" stroke-linecap="round" stroke-linejoin="round"/>
<path d="M1.47998 61.8C13.08 57.85 31.02 53.25 53.36 53.54C73.64 53.81 90.03 58.04 101.11 61.81" stroke="#231F20" stroke-linecap="round" stroke-linejoin="round"/>
<path d="M1.32001 66.8C1.32001 66.51 1.32001 66.21 1.32001 65.92C1.32001 38.32 23.7 15.94 51.3 15.94C78.9 15.94 101.28 38.32 101.28 65.92C101.28 66.21 101.28 66.5 101.28 66.8C90.21 63.03 73.74 58.81 53.46 58.54C31.12 58.24 12.93 62.85 1.34 66.8" stroke="#231F20" stroke-linecap="round" stroke-linejoin="round"/>
<path d="M6.95001 59.92V64.92" stroke="#231F20" stroke-linejoin="round"/>
<path d="M13.68 58.02V63.02" stroke="#231F20" stroke-linejoin="round"/>
<path d="M20.41 56.34V61.34" stroke="#231F20" stroke-linejoin="round"/>
<path d="M27.13 55.17V60.17" stroke="#231F20" stroke-linejoin="round"/>
<path d="M33.86 54.54V59.54" stroke="#231F20" stroke-linejoin="round"/>
<path d="M40.59 54.01V59.01" stroke="#231F20" stroke-linejoin="round"/>
<path d="M47.31 53.52V58.53" stroke="#231F20" stroke-linejoin="round"/>
<path d="M54.04 53.63V58.63" stroke="#231F20" stroke-linejoin="round"/>
<path d="M60.76 54.01V59.01" stroke="#231F20" stroke-linejoin="round"/>
<path d="M67.49 54.54V59.54" stroke="#231F20" stroke-linejoin="round"/>
<path d="M74.22 55.17V60.17" stroke="#231F20" stroke-linejoin="round"/>
<path d="M80.94 56.34V61.34" stroke="#231F20" stroke-linejoin="round"/>
<path d="M87.67 58.02V63.02" stroke="#231F20" stroke-linejoin="round"/>
<path d="M94.4 59.92V64.92" stroke="#231F20" stroke-linejoin="round"/>
</svg>
