<svg width="101" height="101" viewBox="0 0 101 101" fill="none" xmlns="http://www.w3.org/2000/svg">
<path d="M50.55 100.1C78.15 100.1 100.53 77.72 100.53 50.12C100.53 22.52 78.15 0.140015 50.55 0.140015C22.95 0.140015 0.570007 22.52 0.570007 50.12C0.570007 77.72 22.95 100.1 50.55 100.1Z" fill="#F99F1D"/>
<path d="M24.4 28.6C24.4 25.8 26.27 23.48 28.64 23.45C31.01 23.43 32.97 25.67 33.01 28.44C33.01 28.7 33.01 28.99 32.95 29.22" stroke="#231F20" stroke-linecap="round" stroke-linejoin="round"/>
<path d="M42.33 27.42C42.33 24.62 44.2 22.3 46.57 22.27C48.94 22.25 50.9 24.49 50.94 27.26C50.94 27.52 50.94 27.81 50.88 28.04" stroke="#231F20" stroke-linecap="round" stroke-linejoin="round"/>
<path d="M38.44 48.38C40.99 48.38 43.05 45.46 43.05 41.85C43.05 38.24 40.98 35.32 38.44 35.32C35.9 35.32 33.83 38.24 33.83 41.85C33.83 45.46 35.9 48.38 38.44 48.38Z" stroke="#231F20" stroke-linecap="round" stroke-linejoin="round"/>
<path d="M64.71 16.55C65.05 17.53 64.81 18.69 63.97 19.31C63.56 19.61 63.06 19.79 62.52 19.79C61.98 19.79 61.47 19.61 61.07 19.31C60.23 18.69 59.99 17.54 60.33 16.55L60.59 15.8L62.25 11.06C62.34 10.8 62.71 10.8 62.8 11.06L64.46 15.8L64.72 16.55H64.71Z" stroke="#231F20" stroke-linecap="round" stroke-linejoin="round"/>
</svg>
