<svg width="111" height="113" viewBox="0 0 111 113" fill="none" xmlns="http://www.w3.org/2000/svg">
  <!-- Círculo naranja detrás 
  <circle cx="51.5" cy="50.5" r="50" fill="orange" />-->

<path d="M54.2 46.87C53.03 44.33 53.75 41.44 55.89 40.41C58.03 39.38 60.75 40.6 61.96 43.1C62.07 43.34 62.2 43.6 62.23 43.83" stroke="#231F20" stroke-linecap="round" stroke-linejoin="round"/>
<path d="M79.07 46.44C80.24 43.9 79.52 41.01 77.38 39.98C75.24 38.95 72.52 40.17 71.31 42.67C71.2 42.91 71.07 43.17 71.04 43.4" stroke="#231F20" stroke-linecap="round" stroke-linejoin="round"/>
<path d="M62.85 58.85H71.56" stroke="#231F20" stroke-linecap="round" stroke-linejoin="round"/>
<path d="M109.59 21.59L81.73 27.21" stroke="#231F20" stroke-linecap="round" stroke-linejoin="round"/>
<path d="M82.19 27.09L7.72 39.75C6.74 39.92 5.81 39.35 5.66 38.52C2.57 21.43 18.51 4.71998 39.41 1.16998C60.32 -2.39002 78.5 8.50998 83.52 25.28C83.76 26.09 83.17 26.92 82.19 27.09Z" stroke="#231F20" stroke-linecap="round" stroke-linejoin="round"/>
</svg>
