<svg width="101" height="113" viewBox="0 0 101 113" fill="none" xmlns="http://www.w3.org/2000/svg">
<path d="M50.29 112.59C77.89 112.59 100.27 90.21 100.27 62.61C100.27 35.01 77.89 12.63 50.29 12.63C22.69 12.63 0.309998 35.01 0.309998 62.61C0.309998 90.21 22.69 112.59 50.29 112.59Z" fill="#F99F1D"/>
<path d="M44.56 60.37C44.56 61.78 44.2 63.03 43.66 63.92C43.11 64.81 42.41 65.26 41.72 65.26C41.03 65.26 40.34 64.81 39.78 63.92C39.23 63.04 38.88 61.78 38.88 60.37C38.88 58.96 39.24 57.7 39.78 56.82C40.33 55.93 41.03 55.48 41.72 55.48C42.41 55.48 43.1 55.93 43.66 56.82C44.21 57.71 44.56 58.96 44.56 60.37Z" fill="#231F20" stroke="#F99F1D" stroke-linecap="round" stroke-linejoin="round"/>
<path d="M64.01 60.37C64.01 61.78 63.65 63.03 63.11 63.92C62.56 64.81 61.86 65.26 61.17 65.26C60.48 65.26 59.79 64.81 59.23 63.92C58.68 63.04 58.33 61.78 58.33 60.37C58.33 58.96 58.69 57.7 59.23 56.82C59.78 55.93 60.48 55.48 61.17 55.48C61.86 55.48 62.55 55.93 63.11 56.82C63.66 57.71 64.01 58.96 64.01 60.37Z" fill="#231F20" stroke="#F99F1D" stroke-linecap="round" stroke-linejoin="round"/>
<path d="M44.37 71.91H58.64L56.27 74.28C53.87 76.68 50.03 76.82 47.47 74.59L44.38 71.91H44.37Z" stroke="#231F20" stroke-linecap="round" stroke-linejoin="round"/>
<path d="M94.24 38.75C91.44 42.58 72.86 45.54 50.37 45.54C27.88 45.54 9.29999 42.58 6.48999 38.75" stroke="#231F20" stroke-linecap="round" stroke-linejoin="round"/>
<path d="M94.23 38.78C85.77 23.2 69.26 12.62 50.28 12.62C31.3 12.62 14.86 23.16 6.38 38.69" stroke="#231F20" stroke-linecap="round" stroke-linejoin="round"/>
<path d="M50.29 6.82999C51.8032 6.82999 53.03 5.60326 53.03 4.09C53.03 2.57674 51.8032 1.35001 50.29 1.35001C48.7767 1.35001 47.55 2.57674 47.55 4.09C47.55 5.60326 48.7767 6.82999 50.29 6.82999Z" stroke="#231F20" stroke-linecap="round" stroke-linejoin="round"/>
<path d="M50.29 7.35999C50.29 7.35999 60.26 10.63 72.56 10.63C84.86 10.63 94.83 9.16999 94.83 7.35999C94.83 5.54999 84.86 4.09 72.56 4.09C60.26 4.09 50.29 7.35999 50.29 7.35999Z" stroke="#231F20" stroke-linecap="round" stroke-linejoin="round"/>
<path d="M50.29 7.35999C50.29 7.35999 40.32 10.63 28.02 10.63C15.72 10.63 5.75 9.16999 5.75 7.35999C5.75 5.54999 15.72 4.09 28.02 4.09C40.32 4.09 50.29 7.35999 50.29 7.35999Z" stroke="#231F20" stroke-linecap="round" stroke-linejoin="round"/>
<path d="M50.29 12.63C50.29 12.63 36.83 22.2 30.96 44.61" stroke="#231F20" stroke-linecap="round" stroke-linejoin="round"/>
<path d="M50.29 12.63C50.29 12.63 63.75 22.2 69.62 44.61" stroke="#231F20" stroke-linecap="round" stroke-linejoin="round"/>
<path d="M50.29 7.35999V12.63" stroke="#231F20" stroke-linecap="round" stroke-linejoin="round"/>
</svg>
