<svg width="102" height="101" viewBox="0 0 102 101" fill="none" xmlns="http://www.w3.org/2000/svg">
<path d="M1.67 57C1.35 56.28 1.19 52.55 1.19 51.81" stroke="#231F20" stroke-linecap="round" stroke-linejoin="round"/>
<path d="M100.67 57C97.32 64.72 76.44 70.68 51.17 70.68C25.9 70.68 5.02 64.72 1.67 57" stroke="#231F20" stroke-linecap="round" stroke-linejoin="round"/>
<path d="M101.15 51.81C101.15 52.55 100.99 56.28 100.67 57" stroke="#231F20" stroke-linecap="round" stroke-linejoin="round"/>
<path d="M41.13 35.2C41.38 32.41 43.43 30.27 45.8 30.43C48.17 30.6 49.93 33.01 49.72 35.78C49.7 36.04 49.68 36.33 49.59 36.56" stroke="#231F20" stroke-width="1.5" stroke-linecap="round" stroke-linejoin="round"/>
<path d="M59.09 35.58C59.34 32.79 61.39 30.65 63.76 30.81C66.13 30.98 67.89 33.39 67.68 36.16C67.66 36.42 67.64 36.71 67.55 36.94" stroke="#231F20" stroke-width="1.5" stroke-linecap="round" stroke-linejoin="round"/>
<path d="M46.06 42.83C46.06 42.83 52.29 50.43 63.42 43.61" stroke="#231F20" stroke-width="1.5" stroke-linecap="round" stroke-linejoin="round"/>
<path d="M51.17 70.68C76.44 70.68 97.32 64.72 100.67 57C99.47 65.74 96.01 73.76 90.89 80.44C90.82 80.53 90.72 80.58 90.61 80.59C87.36 80.73 83.48 81.61 79.52 83.27C65.29 89.24 66 95.74 66.46 97.31C66.52 97.51 66.41 97.71 66.21 97.78C61.47 99.28 56.41 100.09 51.17 100.09C47.76 100.09 44.44 99.75 41.23 99.1C40.99 99.05 40.88 98.8 40.96 98.57C42.26 94.83 37.73 88.23 30.24 83.25C18.09 75.17 12.79 78.68 11.55 79.85C11.38 80.01 11.12 79.99 10.98 79.8C6.12001 73.25 2.84001 65.46 1.68001 57" stroke="#231F20" stroke-linecap="round" stroke-linejoin="round"/>
<path d="M101.15 51.81C101.15 52.55 100.99 53.28 100.67 54C97.32 61.72 76.44 67.68 51.17 67.68C25.9 67.68 5.02 61.72 1.67 54C1.35 53.28 1.19 52.55 1.19 51.81" stroke="#231F20" stroke-linecap="round" stroke-linejoin="round"/>
</svg>
