<svg width="120" height="105" viewBox="0 0 120 105" fill="none" xmlns="http://www.w3.org/2000/svg">
<path d="M109.72 50.3C109.72 50.91 109.71 51.52 109.68 52.13C109.68 52.7 109.64 53.27 109.59 53.84C109.52 54.97 109.4 56.08 109.25 57.19C105.89 64.92 85 70.88 59.74 70.88C34.48 70.88 13.59 64.92 10.24 57.19C10.08 56.08 9.96001 54.97 9.89001 53.84C9.84001 53.27 9.81001 52.7 9.80001 52.13C9.77001 51.52 9.76001 50.91 9.76001 50.3C9.76001 22.69 32.14 0.309998 59.74 0.309998C87.34 0.309998 109.72 22.69 109.72 50.3Z" fill="#53C8F4"/>
<path d="M59.74 100.28C87.34 100.28 109.72 77.9 109.72 50.3C109.72 22.7 87.34 0.320007 59.74 0.320007C32.14 0.320007 9.76001 22.7 9.76001 50.3C9.76001 77.9 32.14 100.28 59.74 100.28Z" fill="#F99F1D"/>
<path d="M58.18 23.43C57.01 20.89 57.73 18 59.87 16.97C62.01 15.94 64.73 17.16 65.94 19.66C66.05 19.9 66.18 20.16 66.21 20.39" stroke="#231F20" stroke-linecap="round" stroke-linejoin="round"/>
<path d="M83.04 23C84.21 20.46 83.49 17.57 81.35 16.54C79.21 15.51 76.49 16.73 75.28 19.23C75.17 19.47 75.04 19.73 75.01 19.96" stroke="#231F20" stroke-linecap="round" stroke-linejoin="round"/>
<path d="M64.1 30.34H78.37L76 32.71C73.6 35.11 69.76 35.25 67.2 33.02L64.11 30.34H64.1Z" stroke="#231F20" stroke-linecap="round" stroke-linejoin="round"/>
<path d="M118.98 70.28C118.98 76.96 115.58 83.18 109.71 88.42C99.47 97.56 81.73 103.7 61.43 104.03C60.87 104.04 60.31 104.04 59.74 104.04C59.17 104.04 58.61 104.04 58.05 104.03C37.75 103.7 20.01 97.56 9.77 88.42C3.9 83.18 0.5 76.96 0.5 70.28C0.5 63.6 3.91 57.36 9.8 52.13C9.81 52.71 5.12 70.88 59.74 70.88C113.67 70.88 109.66 53.35 109.68 52.13C115.57 57.36 118.98 63.59 118.98 70.28Z" stroke="#231F20" stroke-linecap="round" stroke-linejoin="round"/>
<path d="M48.22 70.58C48.22 70.58 38.06 67.82 38.06 101.24" stroke="#231F20" stroke-linecap="round" stroke-linejoin="round"/>
<path d="M71.23 70.58C71.23 70.58 81.39 65.87 81.39 101.24" stroke="#231F20" stroke-linecap="round" stroke-linejoin="round"/>
<path d="M109.71 88.42C109.71 88.42 113.31 63.35 102.94 63.35" stroke="#231F20" stroke-linecap="round" stroke-linejoin="round"/>
<path d="M9.60002 88.22C9.60002 88.22 6.00002 63.36 16.37 63.36" stroke="#231F20" stroke-linecap="round" stroke-linejoin="round"/>
</svg>
